<mxfile host="65bd71144e">
    <diagram id="sCM7-csmDA61-XnFrUW1" name="Overview">
        <mxGraphModel dx="1150" dy="768" grid="1" gridSize="10" guides="1" tooltips="1" connect="0" arrows="1" fold="1" page="1" pageScale="1" pageWidth="850" pageHeight="1100" math="0" shadow="0">
            <root>
                <mxCell id="0"/>
                <mxCell id="1" parent="0"/>
                <mxCell id="2" value="LLM&lt;br style=&quot;font-size: 21px;&quot;&gt;- Trained by 2021&amp;nbsp;&lt;br style=&quot;font-size: 21px;&quot;&gt;- Static&lt;br&gt;&amp;nbsp; -&amp;gt; out of dated information&lt;br style=&quot;border-color: var(--border-color);&quot;&gt;&amp;nbsp; -&amp;gt; Hallucination&lt;br&gt;&lt;font color=&quot;#020000&quot; style=&quot;font-size: 24px;&quot;&gt;** NOT for knowledge based Q/A&lt;/font&gt;&lt;br&gt;&lt;br&gt;- Token Limitation&lt;br&gt;&amp;nbsp; -&amp;gt;&amp;nbsp;Lost context&lt;br&gt;&amp;nbsp; -&amp;gt; the longer time, the more text&amp;nbsp;&amp;nbsp;&lt;br style=&quot;font-size: 21px;&quot;&gt;&lt;br style=&quot;font-size: 21px;&quot;&gt;" style="rounded=0;whiteSpace=wrap;html=1;fontSize=21;align=left;verticalAlign=top;" vertex="1" parent="1">
                    <mxGeometry x="120" y="40" width="640" height="290" as="geometry"/>
                </mxCell>
                <mxCell id="3" value="Vector Database&lt;br&gt;&amp;nbsp;- Pinecone&lt;br&gt;&amp;nbsp;- Chromadb" style="rounded=0;whiteSpace=wrap;html=1;fontSize=21;align=left;verticalAlign=top;" vertex="1" parent="1">
                    <mxGeometry x="120" y="360" width="640" height="290" as="geometry"/>
                </mxCell>
            </root>
        </mxGraphModel>
    </diagram>
    <diagram id="faK0n0-eOM4Y8aZvJX3o" name="Embeding">
        <mxGraphModel dx="1150" dy="768" grid="1" gridSize="10" guides="1" tooltips="1" connect="1" arrows="1" fold="1" page="1" pageScale="1" pageWidth="850" pageHeight="1100" math="0" shadow="0">
            <root>
                <mxCell id="0"/>
                <mxCell id="1" parent="0"/>
                <mxCell id="QsgZ3kDgbYclTjRCR6Q9-5" value="" style="edgeStyle=none;html=1;fontFamily=Comic Sans MS;fontSize=24;fontColor=#020000;" edge="1" parent="1" source="QsgZ3kDgbYclTjRCR6Q9-1" target="QsgZ3kDgbYclTjRCR6Q9-2">
                    <mxGeometry relative="1" as="geometry"/>
                </mxCell>
                <mxCell id="QsgZ3kDgbYclTjRCR6Q9-1" value="Unstructured Data" style="rounded=1;whiteSpace=wrap;html=1;fontSize=24;fontColor=#020000;fontFamily=Comic Sans MS;" vertex="1" parent="1">
                    <mxGeometry x="40" y="80" width="240" height="120" as="geometry"/>
                </mxCell>
                <mxCell id="QsgZ3kDgbYclTjRCR6Q9-6" value="" style="edgeStyle=none;html=1;fontFamily=Comic Sans MS;fontSize=24;fontColor=#020000;" edge="1" parent="1" source="QsgZ3kDgbYclTjRCR6Q9-2" target="QsgZ3kDgbYclTjRCR6Q9-3">
                    <mxGeometry relative="1" as="geometry"/>
                </mxCell>
                <mxCell id="QsgZ3kDgbYclTjRCR6Q9-2" value="Model" style="rhombus;whiteSpace=wrap;html=1;fontFamily=Comic Sans MS;fontSize=24;fontColor=#020000;" vertex="1" parent="1">
                    <mxGeometry x="360" y="80" width="120" height="120" as="geometry"/>
                </mxCell>
                <mxCell id="QsgZ3kDgbYclTjRCR6Q9-3" value="Vector Embedding" style="rounded=1;whiteSpace=wrap;html=1;fontSize=24;fontColor=#020000;fontFamily=Comic Sans MS;" vertex="1" parent="1">
                    <mxGeometry x="560" y="80" width="240" height="120" as="geometry"/>
                </mxCell>
                <mxCell id="QsgZ3kDgbYclTjRCR6Q9-4" value="[0.3 0.2 0.9 0.4 .......]" style="rounded=0;whiteSpace=wrap;html=1;fontFamily=Comic Sans MS;fontSize=24;fontColor=#020000;" vertex="1" parent="1">
                    <mxGeometry x="280" y="260" width="280" height="60" as="geometry"/>
                </mxCell>
            </root>
        </mxGraphModel>
    </diagram>
    <diagram id="2qUFcUhpQS7fcmMNtvdI" name="Indexing">
        <mxGraphModel dx="1150" dy="768" grid="1" gridSize="10" guides="1" tooltips="1" connect="1" arrows="1" fold="1" page="1" pageScale="1" pageWidth="1100" pageHeight="850" math="0" shadow="0">
            <root>
                <mxCell id="0"/>
                <mxCell id="1" parent="0"/>
                <mxCell id="e2Em2la0v-S2giXAW1cH-36" value="" style="edgeStyle=none;html=1;fontFamily=Comic Sans MS;fontSize=15;fontColor=#020000;" edge="1" parent="1" source="e2Em2la0v-S2giXAW1cH-9" target="e2Em2la0v-S2giXAW1cH-12">
                    <mxGeometry relative="1" as="geometry"/>
                </mxCell>
                <mxCell id="e2Em2la0v-S2giXAW1cH-37" style="edgeStyle=none;html=1;exitX=1;exitY=0.5;exitDx=0;exitDy=0;entryX=0;entryY=0.5;entryDx=0;entryDy=0;fontFamily=Comic Sans MS;fontSize=15;fontColor=#020000;" edge="1" parent="1" source="e2Em2la0v-S2giXAW1cH-9" target="e2Em2la0v-S2giXAW1cH-10">
                    <mxGeometry relative="1" as="geometry"/>
                </mxCell>
                <mxCell id="e2Em2la0v-S2giXAW1cH-38" style="edgeStyle=none;html=1;exitX=1;exitY=0.5;exitDx=0;exitDy=0;entryX=0;entryY=0.5;entryDx=0;entryDy=0;fontFamily=Comic Sans MS;fontSize=15;fontColor=#020000;" edge="1" parent="1" source="e2Em2la0v-S2giXAW1cH-9" target="e2Em2la0v-S2giXAW1cH-11">
                    <mxGeometry relative="1" as="geometry"/>
                </mxCell>
                <mxCell id="e2Em2la0v-S2giXAW1cH-39" style="edgeStyle=none;html=1;exitX=1;exitY=0.5;exitDx=0;exitDy=0;entryX=0;entryY=0.5;entryDx=0;entryDy=0;fontFamily=Comic Sans MS;fontSize=15;fontColor=#020000;" edge="1" parent="1" source="e2Em2la0v-S2giXAW1cH-9" target="e2Em2la0v-S2giXAW1cH-13">
                    <mxGeometry relative="1" as="geometry"/>
                </mxCell>
                <mxCell id="e2Em2la0v-S2giXAW1cH-40" style="edgeStyle=none;html=1;exitX=1;exitY=0.5;exitDx=0;exitDy=0;entryX=0;entryY=0.5;entryDx=0;entryDy=0;fontFamily=Comic Sans MS;fontSize=15;fontColor=#020000;" edge="1" parent="1" source="e2Em2la0v-S2giXAW1cH-9" target="e2Em2la0v-S2giXAW1cH-14">
                    <mxGeometry relative="1" as="geometry"/>
                </mxCell>
                <mxCell id="e2Em2la0v-S2giXAW1cH-9" value="Split in Chunks" style="rounded=0;whiteSpace=wrap;html=1;fontFamily=Comic Sans MS;fontSize=15;fontColor=#020000;" vertex="1" parent="1">
                    <mxGeometry x="130" y="260" width="120" height="80" as="geometry"/>
                </mxCell>
                <mxCell id="e2Em2la0v-S2giXAW1cH-41" value="" style="edgeStyle=none;html=1;fontFamily=Comic Sans MS;fontSize=15;fontColor=#020000;" edge="1" parent="1" source="e2Em2la0v-S2giXAW1cH-10" target="e2Em2la0v-S2giXAW1cH-15">
                    <mxGeometry relative="1" as="geometry"/>
                </mxCell>
                <mxCell id="e2Em2la0v-S2giXAW1cH-10" value="text chunks - 1" style="rounded=0;whiteSpace=wrap;html=1;fontFamily=Comic Sans MS;fontSize=11;fontColor=#020000;" vertex="1" parent="1">
                    <mxGeometry x="280" y="160" width="100" height="40" as="geometry"/>
                </mxCell>
                <mxCell id="e2Em2la0v-S2giXAW1cH-42" value="" style="edgeStyle=none;html=1;fontFamily=Comic Sans MS;fontSize=15;fontColor=#020000;" edge="1" parent="1" source="e2Em2la0v-S2giXAW1cH-11" target="e2Em2la0v-S2giXAW1cH-16">
                    <mxGeometry relative="1" as="geometry"/>
                </mxCell>
                <mxCell id="e2Em2la0v-S2giXAW1cH-11" value="text chunks - 2" style="rounded=0;whiteSpace=wrap;html=1;fontFamily=Comic Sans MS;fontSize=11;fontColor=#020000;" vertex="1" parent="1">
                    <mxGeometry x="280" y="220" width="100" height="40" as="geometry"/>
                </mxCell>
                <mxCell id="e2Em2la0v-S2giXAW1cH-43" value="" style="edgeStyle=none;html=1;fontFamily=Comic Sans MS;fontSize=15;fontColor=#020000;" edge="1" parent="1" source="e2Em2la0v-S2giXAW1cH-12" target="e2Em2la0v-S2giXAW1cH-17">
                    <mxGeometry relative="1" as="geometry"/>
                </mxCell>
                <mxCell id="e2Em2la0v-S2giXAW1cH-12" value="text chunks - 3" style="rounded=0;whiteSpace=wrap;html=1;fontFamily=Comic Sans MS;fontSize=11;fontColor=#020000;" vertex="1" parent="1">
                    <mxGeometry x="280" y="280" width="100" height="40" as="geometry"/>
                </mxCell>
                <mxCell id="e2Em2la0v-S2giXAW1cH-44" value="" style="edgeStyle=none;html=1;fontFamily=Comic Sans MS;fontSize=15;fontColor=#020000;" edge="1" parent="1" source="e2Em2la0v-S2giXAW1cH-13" target="e2Em2la0v-S2giXAW1cH-18">
                    <mxGeometry relative="1" as="geometry"/>
                </mxCell>
                <mxCell id="e2Em2la0v-S2giXAW1cH-13" value="text chunks - 4" style="rounded=0;whiteSpace=wrap;html=1;fontFamily=Comic Sans MS;fontSize=11;fontColor=#020000;" vertex="1" parent="1">
                    <mxGeometry x="280" y="340" width="100" height="40" as="geometry"/>
                </mxCell>
                <mxCell id="e2Em2la0v-S2giXAW1cH-45" value="" style="edgeStyle=none;html=1;fontFamily=Comic Sans MS;fontSize=15;fontColor=#020000;" edge="1" parent="1" source="e2Em2la0v-S2giXAW1cH-14" target="e2Em2la0v-S2giXAW1cH-19">
                    <mxGeometry relative="1" as="geometry"/>
                </mxCell>
                <mxCell id="e2Em2la0v-S2giXAW1cH-14" value="text chunks - 5" style="rounded=0;whiteSpace=wrap;html=1;fontFamily=Comic Sans MS;fontSize=11;fontColor=#020000;" vertex="1" parent="1">
                    <mxGeometry x="280" y="400" width="100" height="40" as="geometry"/>
                </mxCell>
                <mxCell id="e2Em2la0v-S2giXAW1cH-46" style="edgeStyle=none;html=1;exitX=1;exitY=0.75;exitDx=0;exitDy=0;entryX=0;entryY=0.5;entryDx=0;entryDy=0;fontFamily=Comic Sans MS;fontSize=15;fontColor=#020000;" edge="1" parent="1" source="e2Em2la0v-S2giXAW1cH-15" target="e2Em2la0v-S2giXAW1cH-20">
                    <mxGeometry relative="1" as="geometry"/>
                </mxCell>
                <mxCell id="e2Em2la0v-S2giXAW1cH-15" value="Embeddings - 1" style="rounded=0;whiteSpace=wrap;html=1;fontFamily=Comic Sans MS;fontSize=11;fontColor=#020000;" vertex="1" parent="1">
                    <mxGeometry x="410" y="160" width="100" height="40" as="geometry"/>
                </mxCell>
                <mxCell id="e2Em2la0v-S2giXAW1cH-47" style="edgeStyle=none;html=1;exitX=1;exitY=0.5;exitDx=0;exitDy=0;fontFamily=Comic Sans MS;fontSize=15;fontColor=#020000;entryX=0;entryY=0.5;entryDx=0;entryDy=0;" edge="1" parent="1" source="e2Em2la0v-S2giXAW1cH-16" target="e2Em2la0v-S2giXAW1cH-20">
                    <mxGeometry relative="1" as="geometry">
                        <mxPoint x="550" y="300" as="targetPoint"/>
                    </mxGeometry>
                </mxCell>
                <mxCell id="e2Em2la0v-S2giXAW1cH-16" value="Embeddings&amp;nbsp;- 2" style="rounded=0;whiteSpace=wrap;html=1;fontFamily=Comic Sans MS;fontSize=11;fontColor=#020000;" vertex="1" parent="1">
                    <mxGeometry x="410" y="220" width="100" height="40" as="geometry"/>
                </mxCell>
                <mxCell id="e2Em2la0v-S2giXAW1cH-48" value="" style="edgeStyle=none;html=1;fontFamily=Comic Sans MS;fontSize=15;fontColor=#020000;" edge="1" parent="1" source="e2Em2la0v-S2giXAW1cH-17" target="e2Em2la0v-S2giXAW1cH-20">
                    <mxGeometry relative="1" as="geometry"/>
                </mxCell>
                <mxCell id="e2Em2la0v-S2giXAW1cH-17" value="Embeddings&amp;nbsp;- 3" style="rounded=0;whiteSpace=wrap;html=1;fontFamily=Comic Sans MS;fontSize=11;fontColor=#020000;" vertex="1" parent="1">
                    <mxGeometry x="410" y="280" width="100" height="40" as="geometry"/>
                </mxCell>
                <mxCell id="e2Em2la0v-S2giXAW1cH-49" style="edgeStyle=none;html=1;exitX=1;exitY=0.5;exitDx=0;exitDy=0;entryX=-0.042;entryY=0.613;entryDx=0;entryDy=0;entryPerimeter=0;fontFamily=Comic Sans MS;fontSize=15;fontColor=#020000;" edge="1" parent="1" source="e2Em2la0v-S2giXAW1cH-18" target="e2Em2la0v-S2giXAW1cH-20">
                    <mxGeometry relative="1" as="geometry"/>
                </mxCell>
                <mxCell id="e2Em2la0v-S2giXAW1cH-18" value="Embeddings&amp;nbsp;- 4" style="rounded=0;whiteSpace=wrap;html=1;fontFamily=Comic Sans MS;fontSize=11;fontColor=#020000;" vertex="1" parent="1">
                    <mxGeometry x="410" y="340" width="100" height="40" as="geometry"/>
                </mxCell>
                <mxCell id="e2Em2la0v-S2giXAW1cH-50" style="edgeStyle=none;html=1;exitX=1;exitY=0.5;exitDx=0;exitDy=0;fontFamily=Comic Sans MS;fontSize=15;fontColor=#020000;entryX=0;entryY=0.638;entryDx=0;entryDy=0;entryPerimeter=0;" edge="1" parent="1" source="e2Em2la0v-S2giXAW1cH-19" target="e2Em2la0v-S2giXAW1cH-20">
                    <mxGeometry relative="1" as="geometry">
                        <mxPoint x="550" y="300" as="targetPoint"/>
                    </mxGeometry>
                </mxCell>
                <mxCell id="e2Em2la0v-S2giXAW1cH-19" value="Embeddings&amp;nbsp;- 5" style="rounded=0;whiteSpace=wrap;html=1;fontFamily=Comic Sans MS;fontSize=11;fontColor=#020000;" vertex="1" parent="1">
                    <mxGeometry x="410" y="400" width="100" height="40" as="geometry"/>
                </mxCell>
                <mxCell id="e2Em2la0v-S2giXAW1cH-51" value="" style="edgeStyle=none;html=1;fontFamily=Comic Sans MS;fontSize=15;fontColor=#020000;" edge="1" parent="1" source="e2Em2la0v-S2giXAW1cH-20" target="e2Em2la0v-S2giXAW1cH-22">
                    <mxGeometry relative="1" as="geometry"/>
                </mxCell>
                <mxCell id="e2Em2la0v-S2giXAW1cH-20" value="Build Semantic Index" style="rounded=0;whiteSpace=wrap;html=1;fontFamily=Comic Sans MS;fontSize=15;fontColor=#020000;" vertex="1" parent="1">
                    <mxGeometry x="570" y="253" width="120" height="80" as="geometry"/>
                </mxCell>
                <mxCell id="e2Em2la0v-S2giXAW1cH-53" value="" style="edgeStyle=none;html=1;fontFamily=Comic Sans MS;fontSize=15;fontColor=#020000;" edge="1" parent="1" source="e2Em2la0v-S2giXAW1cH-22" target="e2Em2la0v-S2giXAW1cH-33">
                    <mxGeometry relative="1" as="geometry"/>
                </mxCell>
                <mxCell id="e2Em2la0v-S2giXAW1cH-22" value="" style="shape=cylinder3;whiteSpace=wrap;html=1;boundedLbl=1;backgroundOutline=1;size=15;fontFamily=Comic Sans MS;fontSize=15;fontColor=#020000;" vertex="1" parent="1">
                    <mxGeometry x="550" y="430" width="120" height="120" as="geometry"/>
                </mxCell>
                <mxCell id="e2Em2la0v-S2giXAW1cH-21" value="" style="aspect=fixed;perimeter=ellipsePerimeter;html=1;align=center;shadow=0;dashed=0;spacingTop=3;image;image=img/lib/active_directory/database_cube.svg;fontFamily=Comic Sans MS;fontSize=15;fontColor=#020000;" vertex="1" parent="1">
                    <mxGeometry x="578.5" y="470" width="63" height="70" as="geometry"/>
                </mxCell>
                <mxCell id="e2Em2la0v-S2giXAW1cH-23" value="" style="dashed=0;outlineConnect=0;html=1;align=center;labelPosition=center;verticalLabelPosition=bottom;verticalAlign=top;shape=mxgraph.webicons.adobe_pdf;fillColor=#F40C0C;gradientColor=#610603;fontFamily=Comic Sans MS;fontSize=15;fontColor=#020000;" vertex="1" parent="1">
                    <mxGeometry x="20" y="248" width="50" height="50" as="geometry"/>
                </mxCell>
                <mxCell id="e2Em2la0v-S2giXAW1cH-24" value="" style="dashed=0;outlineConnect=0;html=1;align=center;labelPosition=center;verticalLabelPosition=bottom;verticalAlign=top;shape=mxgraph.webicons.adobe_pdf;fillColor=#F40C0C;gradientColor=#610603;fontFamily=Comic Sans MS;fontSize=15;fontColor=#020000;" vertex="1" parent="1">
                    <mxGeometry x="30" y="258" width="50" height="50" as="geometry"/>
                </mxCell>
                <mxCell id="e2Em2la0v-S2giXAW1cH-25" value="" style="dashed=0;outlineConnect=0;html=1;align=center;labelPosition=center;verticalLabelPosition=bottom;verticalAlign=top;shape=mxgraph.webicons.adobe_pdf;fillColor=#F40C0C;gradientColor=#610603;fontFamily=Comic Sans MS;fontSize=15;fontColor=#020000;" vertex="1" parent="1">
                    <mxGeometry x="40" y="268" width="50" height="50" as="geometry"/>
                </mxCell>
                <mxCell id="e2Em2la0v-S2giXAW1cH-35" value="" style="edgeStyle=none;html=1;fontFamily=Comic Sans MS;fontSize=15;fontColor=#020000;" edge="1" parent="1" source="e2Em2la0v-S2giXAW1cH-26" target="e2Em2la0v-S2giXAW1cH-9">
                    <mxGeometry relative="1" as="geometry"/>
                </mxCell>
                <mxCell id="e2Em2la0v-S2giXAW1cH-26" value="" style="dashed=0;outlineConnect=0;html=1;align=center;labelPosition=center;verticalLabelPosition=bottom;verticalAlign=top;shape=mxgraph.webicons.adobe_pdf;fillColor=#F40C0C;gradientColor=#610603;fontFamily=Comic Sans MS;fontSize=15;fontColor=#020000;" vertex="1" parent="1">
                    <mxGeometry x="50" y="278" width="50" height="50" as="geometry"/>
                </mxCell>
                <mxCell id="e2Em2la0v-S2giXAW1cH-54" style="edgeStyle=none;html=1;exitX=0.14;exitY=0.65;exitDx=0;exitDy=0;exitPerimeter=0;entryX=0.5;entryY=0;entryDx=0;entryDy=0;fontFamily=Comic Sans MS;fontSize=15;fontColor=#020000;" edge="1" parent="1" source="e2Em2la0v-S2giXAW1cH-28" target="e2Em2la0v-S2giXAW1cH-30">
                    <mxGeometry relative="1" as="geometry"/>
                </mxCell>
                <mxCell id="e2Em2la0v-S2giXAW1cH-28" value="" style="verticalLabelPosition=bottom;html=1;verticalAlign=top;align=center;strokeColor=none;fillColor=#00BEF2;shape=mxgraph.azure.user;fontFamily=Comic Sans MS;fontSize=11;fontColor=#020000;" vertex="1" parent="1">
                    <mxGeometry x="870" y="70" width="47.5" height="50" as="geometry"/>
                </mxCell>
                <mxCell id="e2Em2la0v-S2giXAW1cH-29" value="" style="sketch=0;outlineConnect=0;fontColor=#232F3E;gradientColor=none;fillColor=#232F3D;strokeColor=none;dashed=0;verticalLabelPosition=bottom;verticalAlign=top;align=center;html=1;fontSize=12;fontStyle=0;aspect=fixed;pointerEvents=1;shape=mxgraph.aws4.question;fontFamily=Comic Sans MS;" vertex="1" parent="1">
                    <mxGeometry x="803.43" y="110" width="23.13" height="44" as="geometry"/>
                </mxCell>
                <mxCell id="e2Em2la0v-S2giXAW1cH-55" value="" style="edgeStyle=none;html=1;fontFamily=Comic Sans MS;fontSize=15;fontColor=#020000;" edge="1" parent="1" source="e2Em2la0v-S2giXAW1cH-30" target="e2Em2la0v-S2giXAW1cH-31">
                    <mxGeometry relative="1" as="geometry"/>
                </mxCell>
                <mxCell id="e2Em2la0v-S2giXAW1cH-57" style="edgeStyle=none;html=1;exitX=1;exitY=0.5;exitDx=0;exitDy=0;entryX=0;entryY=0.5;entryDx=0;entryDy=0;fontFamily=Comic Sans MS;fontSize=15;fontColor=#020000;" edge="1" parent="1" source="e2Em2la0v-S2giXAW1cH-30" target="e2Em2la0v-S2giXAW1cH-34">
                    <mxGeometry relative="1" as="geometry"/>
                </mxCell>
                <mxCell id="e2Em2la0v-S2giXAW1cH-30" value="Question" style="rounded=0;whiteSpace=wrap;html=1;fontFamily=Comic Sans MS;fontSize=12;fontColor=#020000;" vertex="1" parent="1">
                    <mxGeometry x="720" y="160" width="110" height="40" as="geometry"/>
                </mxCell>
                <mxCell id="e2Em2la0v-S2giXAW1cH-56" value="" style="edgeStyle=none;html=1;fontFamily=Comic Sans MS;fontSize=15;fontColor=#020000;" edge="1" parent="1" source="e2Em2la0v-S2giXAW1cH-31" target="e2Em2la0v-S2giXAW1cH-32">
                    <mxGeometry relative="1" as="geometry"/>
                </mxCell>
                <mxCell id="e2Em2la0v-S2giXAW1cH-31" value="Query Embeddings" style="rounded=0;whiteSpace=wrap;html=1;fontFamily=Comic Sans MS;fontSize=12;fontColor=#020000;" vertex="1" parent="1">
                    <mxGeometry x="720" y="240" width="110" height="40" as="geometry"/>
                </mxCell>
                <mxCell id="e2Em2la0v-S2giXAW1cH-52" style="edgeStyle=none;html=1;exitX=0.5;exitY=1;exitDx=0;exitDy=0;entryX=1;entryY=0.417;entryDx=0;entryDy=0;entryPerimeter=0;fontFamily=Comic Sans MS;fontSize=15;fontColor=#020000;" edge="1" parent="1" source="e2Em2la0v-S2giXAW1cH-32" target="e2Em2la0v-S2giXAW1cH-22">
                    <mxGeometry relative="1" as="geometry"/>
                </mxCell>
                <mxCell id="e2Em2la0v-S2giXAW1cH-32" value="Semantic Search" style="rounded=0;whiteSpace=wrap;html=1;fontFamily=Comic Sans MS;fontSize=12;fontColor=#020000;" vertex="1" parent="1">
                    <mxGeometry x="720" y="320" width="110" height="40" as="geometry"/>
                </mxCell>
                <mxCell id="e2Em2la0v-S2giXAW1cH-59" style="edgeStyle=none;html=1;exitX=1;exitY=0.5;exitDx=0;exitDy=0;entryX=0.5;entryY=1;entryDx=0;entryDy=0;fontFamily=Comic Sans MS;fontSize=15;fontColor=#020000;" edge="1" parent="1" source="e2Em2la0v-S2giXAW1cH-33" target="e2Em2la0v-S2giXAW1cH-34">
                    <mxGeometry relative="1" as="geometry"/>
                </mxCell>
                <mxCell id="e2Em2la0v-S2giXAW1cH-33" value="Ranked Results" style="rounded=0;whiteSpace=wrap;html=1;fontFamily=Comic Sans MS;fontSize=12;fontColor=#020000;" vertex="1" parent="1">
                    <mxGeometry x="760" y="470" width="110" height="40" as="geometry"/>
                </mxCell>
                <mxCell id="e2Em2la0v-S2giXAW1cH-58" style="edgeStyle=none;html=1;exitX=0.5;exitY=0;exitDx=0;exitDy=0;entryX=0.87;entryY=0.65;entryDx=0;entryDy=0;entryPerimeter=0;fontFamily=Comic Sans MS;fontSize=15;fontColor=#020000;" edge="1" parent="1" source="e2Em2la0v-S2giXAW1cH-34" target="e2Em2la0v-S2giXAW1cH-28">
                    <mxGeometry relative="1" as="geometry"/>
                </mxCell>
                <mxCell id="e2Em2la0v-S2giXAW1cH-34" value="LLM Generative AI" style="rounded=0;whiteSpace=wrap;html=1;fontFamily=Comic Sans MS;fontSize=15;fontColor=#020000;fontStyle=1" vertex="1" parent="1">
                    <mxGeometry x="950" y="220" width="130" height="60" as="geometry"/>
                </mxCell>
            </root>
        </mxGraphModel>
    </diagram>
</mxfile>